<svg width="22" height="25" viewBox="0 0 22 25" fill="none" xmlns="http://www.w3.org/2000/svg">
<path d="M17.7757 13.1832C17.7642 11.2159 18.6555 9.7333 20.4554 8.64007C19.4487 7.19782 17.9257 6.40458 15.9181 6.2517C14.0172 6.10171 11.9375 7.35935 11.176 7.35935C10.3712 7.35935 8.53091 6.30362 7.08288 6.30362C4.09454 6.34977 0.918701 8.68622 0.918701 13.4399C0.918701 14.8446 1.17542 16.2955 1.68886 17.7897C2.37538 19.7569 4.85028 24.5769 7.43191 24.4991C8.78186 24.4673 9.73663 23.5414 11.4933 23.5414C13.198 23.5414 14.0807 24.4991 15.5864 24.4991C18.1911 24.4616 20.4295 20.08 21.0814 18.107C17.5882 16.46 17.7757 13.2841 17.7757 13.1832ZM14.7441 4.38543C16.2066 2.64895 16.0739 1.06825 16.0306 0.5C14.7384 0.574997 13.2442 1.37977 12.3933 2.36916C11.4558 3.43066 10.9049 4.7431 11.0231 6.22285C12.4192 6.32958 13.6942 5.61134 14.7441 4.38543Z" fill="white"/>
</svg>
