<svg width="90" height="16" viewBox="0 0 90 16" fill="none" xmlns="http://www.w3.org/2000/svg">
<path d="M8.11255 10.1328H3.87036L3.07349 12.5H0.557861L4.66724 0.984375H7.38599L11.4641 12.5H8.85474L8.11255 10.1328ZM7.44067 8.14844L6.00317 3.61719L4.5188 8.14844H7.44067ZM19.886 4.89844C20.5735 5.63281 20.9172 6.71094 20.9172 8.13281C20.9172 9.63281 20.5787 10.776 19.9016 11.5625C19.2297 12.349 18.3625 12.7422 17.3 12.7422C16.623 12.7422 16.0605 12.5729 15.6125 12.2344C15.3678 12.0469 15.1282 11.7734 14.8938 11.4141V15.8516H12.6907V3.98438H14.8235V5.24219C15.0631 4.8724 15.3183 4.58073 15.5891 4.36719C16.0839 3.98698 16.6724 3.79688 17.3547 3.79688C18.3495 3.79688 19.1933 4.16406 19.886 4.89844ZM18.6204 8.24219C18.6204 7.58594 18.4693 7.00521 18.1672 6.5C17.8704 5.99479 17.386 5.74219 16.7141 5.74219C15.9068 5.74219 15.3521 6.125 15.05 6.89062C14.8938 7.29688 14.8157 7.8125 14.8157 8.4375C14.8157 9.42708 15.0787 10.1224 15.6047 10.5234C15.9172 10.7578 16.287 10.875 16.7141 10.875C17.3339 10.875 17.8053 10.6354 18.1282 10.1562C18.4563 9.67708 18.6204 9.03906 18.6204 8.24219ZM29.6672 4.89844C30.3547 5.63281 30.6985 6.71094 30.6985 8.13281C30.6985 9.63281 30.3599 10.776 29.6829 11.5625C29.011 12.349 28.1438 12.7422 27.0813 12.7422C26.4042 12.7422 25.8417 12.5729 25.3938 12.2344C25.149 12.0469 24.9094 11.7734 24.675 11.4141V15.8516H22.4719V3.98438H24.6047V5.24219C24.8443 4.8724 25.0995 4.58073 25.3704 4.36719C25.8652 3.98698 26.4537 3.79688 27.136 3.79688C28.1308 3.79688 28.9745 4.16406 29.6672 4.89844ZM28.4016 8.24219C28.4016 7.58594 28.2506 7.00521 27.9485 6.5C27.6516 5.99479 27.1672 5.74219 26.4954 5.74219C25.6881 5.74219 25.1334 6.125 24.8313 6.89062C24.675 7.29688 24.5969 7.8125 24.5969 8.4375C24.5969 9.42708 24.8599 10.1224 25.386 10.5234C25.6985 10.7578 26.0683 10.875 26.4954 10.875C27.1152 10.875 27.5865 10.6354 27.9094 10.1562C28.2375 9.67708 28.4016 9.03906 28.4016 8.24219ZM32.3625 0.984375H34.5891V12.5H32.3625V0.984375ZM44.0579 10C44.0006 10.5052 43.7375 11.0182 43.2688 11.5391C42.5396 12.3672 41.5188 12.7812 40.2063 12.7812C39.123 12.7812 38.1672 12.4323 37.3391 11.7344C36.511 11.0365 36.0969 9.90104 36.0969 8.32812C36.0969 6.85417 36.4693 5.72396 37.2141 4.9375C37.9641 4.15104 38.9355 3.75781 40.1282 3.75781C40.8365 3.75781 41.4745 3.89062 42.0422 4.15625C42.6099 4.42188 43.0787 4.84115 43.4485 5.41406C43.7818 5.91927 43.998 6.50521 44.0969 7.17188C44.1542 7.5625 44.1777 8.125 44.1672 8.85938H38.3391C38.3704 9.71354 38.6386 10.3125 39.1438 10.6562C39.4511 10.8698 39.8209 10.9766 40.2532 10.9766C40.7115 10.9766 41.0839 10.8464 41.3704 10.5859C41.5266 10.4453 41.6646 10.25 41.7844 10H44.0579ZM41.8547 7.39062C41.8183 6.80208 41.6386 6.35677 41.3157 6.05469C40.998 5.7474 40.6021 5.59375 40.1282 5.59375C39.6125 5.59375 39.2115 5.75521 38.925 6.07812C38.6438 6.40104 38.4667 6.83854 38.3938 7.39062H41.8547ZM54.4875 10.8359C55.0553 10.8359 55.5162 10.7734 55.8704 10.6484C56.5422 10.4089 56.8782 9.96354 56.8782 9.3125C56.8782 8.93229 56.7115 8.63802 56.3782 8.42969C56.0448 8.22656 55.5214 8.04688 54.8079 7.89062L53.5891 7.61719C52.3912 7.34635 51.5631 7.05208 51.1047 6.73438C50.3287 6.20312 49.9407 5.3724 49.9407 4.24219C49.9407 3.21094 50.3157 2.35417 51.0657 1.67188C51.8157 0.989583 52.9172 0.648438 54.3704 0.648438C55.5839 0.648438 56.6178 0.971354 57.4719 1.61719C58.3313 2.25781 58.7818 3.1901 58.8235 4.41406H56.511C56.4693 3.72135 56.1672 3.22917 55.6047 2.9375C55.2297 2.74479 54.7636 2.64844 54.2063 2.64844C53.5865 2.64844 53.0917 2.77344 52.7219 3.02344C52.3521 3.27344 52.1672 3.6224 52.1672 4.07031C52.1672 4.48177 52.3495 4.78906 52.7141 4.99219C52.9485 5.1276 53.4485 5.28646 54.2141 5.46875L56.1985 5.94531C57.0683 6.15365 57.7245 6.43229 58.1672 6.78125C58.8547 7.32292 59.1985 8.10677 59.1985 9.13281C59.1985 10.1849 58.7948 11.0599 57.9875 11.7578C57.1855 12.4505 56.05 12.7969 54.5813 12.7969C53.0813 12.7969 51.9016 12.4557 51.0422 11.7734C50.1829 11.0859 49.7532 10.1432 49.7532 8.94531H52.05C52.123 9.47135 52.2662 9.86458 52.4797 10.125C52.8704 10.599 53.5396 10.8359 54.4875 10.8359ZM64.6985 10.9141V12.5781L63.6438 12.6172C62.5917 12.6536 61.873 12.4714 61.4875 12.0703C61.2375 11.8151 61.1125 11.4219 61.1125 10.8906V5.64844H59.925V4.0625H61.1125V1.6875H63.3157V4.0625H64.6985V5.64844H63.3157V10.1484C63.3157 10.4974 63.3599 10.7161 63.4485 10.8047C63.537 10.888 63.8079 10.9297 64.261 10.9297C64.3287 10.9297 64.399 10.9297 64.4719 10.9297C64.55 10.9245 64.6256 10.9193 64.6985 10.9141ZM73.2297 5.0625C73.9485 5.96354 74.3079 7.02865 74.3079 8.25781C74.3079 9.50781 73.9485 10.5781 73.2297 11.4688C72.511 12.3542 71.4198 12.7969 69.9563 12.7969C68.4928 12.7969 67.4016 12.3542 66.6829 11.4688C65.9641 10.5781 65.6047 9.50781 65.6047 8.25781C65.6047 7.02865 65.9641 5.96354 66.6829 5.0625C67.4016 4.16146 68.4928 3.71094 69.9563 3.71094C71.4198 3.71094 72.511 4.16146 73.2297 5.0625ZM69.9485 5.59375C69.2974 5.59375 68.7948 5.82552 68.4407 6.28906C68.0917 6.7474 67.9172 7.40365 67.9172 8.25781C67.9172 9.11198 68.0917 9.77083 68.4407 10.2344C68.7948 10.6979 69.2974 10.9297 69.9485 10.9297C70.5995 10.9297 71.0995 10.6979 71.4485 10.2344C71.7974 9.77083 71.9719 9.11198 71.9719 8.25781C71.9719 7.40365 71.7974 6.7474 71.4485 6.28906C71.0995 5.82552 70.5995 5.59375 69.9485 5.59375ZM80.1907 6.03906C79.2948 6.03906 78.6933 6.33073 78.386 6.91406C78.2141 7.24219 78.1282 7.7474 78.1282 8.42969V12.5H75.886V3.98438H78.011V5.46875C78.3547 4.90104 78.6542 4.51302 78.9094 4.30469C79.3261 3.95573 79.8678 3.78125 80.5344 3.78125C80.5761 3.78125 80.6099 3.78385 80.636 3.78906C80.6672 3.78906 80.7323 3.79167 80.8313 3.79688V6.07812C80.6907 6.0625 80.5657 6.05208 80.4563 6.04688C80.3469 6.04167 80.2584 6.03906 80.1907 6.03906ZM89.4329 10C89.3756 10.5052 89.1125 11.0182 88.6438 11.5391C87.9146 12.3672 86.8938 12.7812 85.5813 12.7812C84.498 12.7812 83.5422 12.4323 82.7141 11.7344C81.886 11.0365 81.4719 9.90104 81.4719 8.32812C81.4719 6.85417 81.8443 5.72396 82.5891 4.9375C83.3391 4.15104 84.3105 3.75781 85.5032 3.75781C86.2115 3.75781 86.8495 3.89062 87.4172 4.15625C87.9849 4.42188 88.4537 4.84115 88.8235 5.41406C89.1568 5.91927 89.373 6.50521 89.4719 7.17188C89.5292 7.5625 89.5527 8.125 89.5422 8.85938H83.7141C83.7454 9.71354 84.0136 10.3125 84.5188 10.6562C84.8261 10.8698 85.1959 10.9766 85.6282 10.9766C86.0865 10.9766 86.4589 10.8464 86.7454 10.5859C86.9016 10.4453 87.0396 10.25 87.1594 10H89.4329ZM87.2297 7.39062C87.1933 6.80208 87.0136 6.35677 86.6907 6.05469C86.373 5.7474 85.9771 5.59375 85.5032 5.59375C84.9875 5.59375 84.5865 5.75521 84.3 6.07812C84.0188 6.40104 83.8417 6.83854 83.7688 7.39062H87.2297Z" fill="white"/>
</svg>
