<svg width="26" height="32" viewBox="0 0 26 32" fill="none" xmlns="http://www.w3.org/2000/svg">
<path d="M4.59375 8.78125C5.21562 8.78125 5.71875 8.27812 5.71875 7.65625V1.125C5.71875 0.503125 5.21562 0 4.59375 0C3.97188 0 3.46875 0.503125 3.46875 1.125V7.65625C3.46875 8.27812 3.97188 8.78125 4.59375 8.78125ZM23.75 13.2812H20C20 12.0375 18.9937 11.0312 17.75 11.0312H2.25C1.00625 11.0312 0 12.0375 0 13.2812V21.0312C0 21.1375 0.0062499 21.2406 0.0218749 21.3406C0.0062499 21.5594 0 21.7781 0 22C0 27.5219 4.47813 32 10 32C15.0031 32 19.1469 28.3281 19.8844 23.5312H23.75C24.9937 23.5312 26 22.525 26 21.2812V15.5312C26 14.2875 24.9937 13.2812 23.75 13.2812ZM17.75 21.2812H17.7156C17.7375 21.5187 17.75 21.7562 17.75 22C17.75 26.2812 14.2812 29.75 10 29.75C5.71875 29.75 2.25 26.2812 2.25 22C2.25 21.7562 2.2625 21.5187 2.28438 21.2812H2.25V13.2812H17.75V21.2812ZM23.75 21.0312H20.25V15.5312H23.75V21.0312ZM15.1562 8.78125C15.7781 8.78125 16.2812 8.27812 16.2812 7.65625V1.125C16.2812 0.503125 15.7781 0 15.1562 0C14.5344 0 14.0312 0.503125 14.0312 1.125V7.65625C14.0312 8.27812 14.5344 8.78125 15.1562 8.78125ZM9.84375 8.78125C10.4656 8.78125 10.9688 8.27812 10.9688 7.65625V1.125C10.9688 0.503125 10.4656 0 9.84375 0C9.22188 0 8.71875 0.503125 8.71875 1.125V7.65625C8.71875 8.27812 9.22188 8.78125 9.84375 8.78125Z" fill="white"/>
</svg>
