<svg width="32" height="32" viewBox="0 0 32 32" fill="none" xmlns="http://www.w3.org/2000/svg">
<path d="M22.8679 16.2592H21.2785C21.1882 16.2592 21.1019 16.2982 21.041 16.3665L16.7456 21.2892V10.3023C16.7456 10.2165 16.675 10.1462 16.5887 10.1462H15.4113C15.325 10.1462 15.2543 10.2165 15.2543 10.3023V21.2892L10.9589 16.3665C10.9001 16.2982 10.8137 16.2592 10.7215 16.2592H9.13205C8.99862 16.2592 8.92602 16.4172 9.01432 16.5167L15.5271 23.9799C15.5859 24.0474 15.6587 24.1016 15.7405 24.1387C15.8222 24.1758 15.9111 24.195 16.001 24.195C16.0908 24.195 16.1797 24.1758 16.2614 24.1387C16.3432 24.1016 16.416 24.0474 16.4748 23.9799L22.9856 16.5167C23.0739 16.4153 23.0013 16.2592 22.8679 16.2592Z" fill="#253C8C"/>
<rect x="1" y="1" width="30" height="30" rx="15" stroke="#253C8C" stroke-width="2"/>
</svg>
