<svg width="86" height="17" viewBox="0 0 86 17" fill="none" xmlns="http://www.w3.org/2000/svg">
<path d="M27.4453 4.75C25.0453 4.75 23.1453 6.55 23.1453 9.05C23.1453 11.45 25.0453 13.35 27.4453 13.35C29.8453 13.35 31.7453 11.55 31.7453 9.05C31.7453 6.45 29.8453 4.75 27.4453 4.75ZM27.4453 11.55C26.1453 11.55 25.0453 10.45 25.0453 8.95C25.0453 7.45 26.1453 6.35 27.4453 6.35C28.7453 6.35 29.8453 7.35 29.8453 8.95C29.8453 10.45 28.7453 11.55 27.4453 11.55ZM18.1453 4.75C15.7453 4.75 13.8453 6.55 13.8453 9.05C13.8453 11.45 15.7453 13.35 18.1453 13.35C20.5453 13.35 22.4453 11.55 22.4453 9.05C22.4453 6.45 20.5453 4.75 18.1453 4.75ZM18.1453 11.55C16.8453 11.55 15.7453 10.45 15.7453 8.95C15.7453 7.45 16.8453 6.35 18.1453 6.35C19.4453 6.35 20.5453 7.35 20.5453 8.95C20.5453 10.45 19.4453 11.55 18.1453 11.55ZM7.04531 6.05V7.85H11.3453C11.2453 8.85 10.8453 9.65 10.3453 10.15C9.74531 10.75 8.74531 11.45 7.04531 11.45C4.34531 11.45 2.34531 9.35 2.34531 6.65C2.34531 3.95 4.44531 1.85 7.04531 1.85C8.44531 1.85 9.54531 2.45 10.3453 3.15L11.6453 1.85C10.5453 0.850002 9.14531 0.0500031 7.14531 0.0500031C3.54531 0.0500031 0.445312 3.05 0.445312 6.65C0.445312 10.25 3.54531 13.25 7.14531 13.25C9.14531 13.25 10.5453 12.65 11.7453 11.35C12.9453 10.15 13.3453 8.45 13.3453 7.15C13.3453 6.75 13.3453 6.35 13.2453 6.05H7.04531ZM52.4453 7.45C52.0453 6.45 51.0453 4.75 48.8453 4.75C46.6453 4.75 44.8453 6.45 44.8453 9.05C44.8453 11.45 46.6453 13.35 49.0453 13.35C50.9453 13.35 52.1453 12.15 52.5453 11.45L51.1453 10.45C50.6453 11.15 50.0453 11.65 49.0453 11.65C48.0453 11.65 47.4453 11.25 46.9453 10.35L52.6453 7.95L52.4453 7.45ZM46.6453 8.85C46.6453 7.25 47.9453 6.35 48.8453 6.35C49.5453 6.35 50.2453 6.75 50.4453 7.25L46.6453 8.85ZM41.9453 12.95H43.8453V0.450003H41.9453V12.95ZM38.9453 5.65C38.4453 5.15 37.6453 4.65 36.6453 4.65C34.5453 4.65 32.5453 6.55 32.5453 8.95C32.5453 11.35 34.4453 13.15 36.6453 13.15C37.6453 13.15 38.4453 12.65 38.8453 12.15H38.9453V12.75C38.9453 14.35 38.0453 15.25 36.6453 15.25C35.5453 15.25 34.7453 14.45 34.5453 13.75L32.9453 14.45C33.4453 15.55 34.6453 16.95 36.7453 16.95C38.9453 16.95 40.7453 15.65 40.7453 12.55V4.95H38.9453V5.65ZM36.7453 11.55C35.4453 11.55 34.3453 10.45 34.3453 8.95C34.3453 7.45 35.4453 6.35 36.7453 6.35C38.0453 6.35 39.0453 7.45 39.0453 8.95C39.0453 10.45 38.0453 11.55 36.7453 11.55ZM61.1453 0.450003H56.6453V12.95H58.5453V8.25H61.1453C63.2453 8.25 65.2453 6.75 65.2453 4.35C65.2453 1.95 63.2453 0.450003 61.1453 0.450003ZM61.2453 6.45H58.5453V2.15H61.2453C62.6453 2.15 63.4453 3.35 63.4453 4.25C63.3453 5.35 62.5453 6.45 61.2453 6.45ZM72.7453 4.65C71.3453 4.65 69.9453 5.25 69.4453 6.55L71.1453 7.25C71.5453 6.55 72.1453 6.35 72.8453 6.35C73.8453 6.35 74.7453 6.95 74.8453 7.95V8.05C74.5453 7.85 73.7453 7.55 72.9453 7.55C71.1453 7.55 69.3453 8.55 69.3453 10.35C69.3453 12.05 70.8453 13.15 72.4453 13.15C73.7453 13.15 74.3453 12.55 74.8453 11.95H74.9453V12.95H76.7453V8.15C76.5453 5.95 74.8453 4.65 72.7453 4.65ZM72.5453 11.55C71.9453 11.55 71.0453 11.25 71.0453 10.45C71.0453 9.45 72.1453 9.15 73.0453 9.15C73.8453 9.15 74.2453 9.35 74.7453 9.55C74.5453 10.75 73.5453 11.55 72.5453 11.55ZM83.0453 4.95L80.9453 10.35H80.8453L78.6453 4.95H76.6453L79.9453 12.55L78.0453 16.75H79.9453L85.0453 4.95H83.0453ZM66.2453 12.95H68.1453V0.450003H66.2453V12.95Z" fill="white"/>
</svg>
