<svg width="28" height="26" viewBox="0 0 28 26" fill="none" xmlns="http://www.w3.org/2000/svg">
<path d="M27.1429 22.5714H2.57143V0.285714C2.57143 0.128571 2.44286 0 2.28571 0H0.285714C0.128571 0 0 0.128571 0 0.285714V24.8571C0 25.0143 0.128571 25.1429 0.285714 25.1429H27.1429C27.3 25.1429 27.4286 25.0143 27.4286 24.8571V22.8571C27.4286 22.7 27.3 22.5714 27.1429 22.5714ZM5.71429 19.7143H7.71429C7.87143 19.7143 8 19.5857 8 19.4286V14.2857C8 14.1286 7.87143 14 7.71429 14H5.71429C5.55714 14 5.42857 14.1286 5.42857 14.2857V19.4286C5.42857 19.5857 5.55714 19.7143 5.71429 19.7143ZM11.1429 19.7143H13.1429C13.3 19.7143 13.4286 19.5857 13.4286 19.4286V8C13.4286 7.84286 13.3 7.71429 13.1429 7.71429H11.1429C10.9857 7.71429 10.8571 7.84286 10.8571 8V19.4286C10.8571 19.5857 10.9857 19.7143 11.1429 19.7143ZM16.5714 19.7143H18.5714C18.7286 19.7143 18.8571 19.5857 18.8571 19.4286V10.7857C18.8571 10.6286 18.7286 10.5 18.5714 10.5H16.5714C16.4143 10.5 16.2857 10.6286 16.2857 10.7857V19.4286C16.2857 19.5857 16.4143 19.7143 16.5714 19.7143ZM22 19.7143H24C24.1571 19.7143 24.2857 19.5857 24.2857 19.4286V5.14286C24.2857 4.98571 24.1571 4.85714 24 4.85714H22C21.8429 4.85714 21.7143 4.98571 21.7143 5.14286V19.4286C21.7143 19.5857 21.8429 19.7143 22 19.7143Z" fill="white"/>
</svg>
