<svg width="26" height="29" viewBox="0 0 26 29" fill="none" xmlns="http://www.w3.org/2000/svg">
<path d="M24 12.5714H21.5714V4.57143C21.5714 2.04643 19.525 0 17 0H8.14286C5.61786 0 3.57143 2.04643 3.57143 4.57143V12.5714H1.14286C0.510714 12.5714 0 13.0821 0 13.7143V27.4286C0 28.0607 0.510714 28.5714 1.14286 28.5714H24C24.6321 28.5714 25.1429 28.0607 25.1429 27.4286V13.7143C25.1429 13.0821 24.6321 12.5714 24 12.5714ZM6.14286 4.57143C6.14286 3.46786 7.03929 2.57143 8.14286 2.57143H17C18.1036 2.57143 19 3.46786 19 4.57143V12.5714H6.14286V4.57143ZM22.5714 26H2.57143V15.1429H22.5714V26ZM11.5714 21.0357V22.9286C11.5714 23.0857 11.7 23.2143 11.8571 23.2143H13.2857C13.4429 23.2143 13.5714 23.0857 13.5714 22.9286V21.0357C13.8662 20.8241 14.0863 20.5243 14.1999 20.1796C14.3135 19.8349 14.3148 19.4631 14.2036 19.1176C14.0925 18.7721 13.8745 18.4709 13.5812 18.2571C13.2879 18.0434 12.9344 17.9282 12.5714 17.9282C12.2085 17.9282 11.8549 18.0434 11.5616 18.2571C11.2683 18.4709 11.0504 18.7721 10.9392 19.1176C10.828 19.4631 10.8294 19.8349 10.943 20.1796C11.0566 20.5243 11.2766 20.8241 11.5714 21.0357V21.0357Z" fill="white"/>
</svg>
