<svg width="32" height="32" viewBox="0 0 32 32" fill="none" xmlns="http://www.w3.org/2000/svg">
<path d="M9.1321 15.7407L10.7215 15.7407C10.8118 15.7407 10.8981 15.7017 10.959 15.6334L15.2544 10.7106L15.2544 21.6975C15.2544 21.7834 15.325 21.8536 15.4113 21.8536L16.5887 21.8536C16.675 21.8536 16.7457 21.7834 16.7457 21.6975L16.7457 10.7106L21.0411 15.6334C21.0999 15.7017 21.1863 15.7407 21.2785 15.7407L22.8679 15.7407C23.0014 15.7407 23.074 15.5826 22.9857 15.4831L16.4729 8.02C16.4141 7.95246 16.3413 7.89831 16.2595 7.86119C16.1778 7.82407 16.0889 7.80486 15.999 7.80486C15.9092 7.80486 15.8203 7.82407 15.7386 7.86119C15.6568 7.89831 15.584 7.95246 15.5252 8.02L9.01437 15.4831C8.92607 15.5846 8.99867 15.7407 9.1321 15.7407Z" fill="#fff"/>
<rect x="31" y="31" width="30" height="30" rx="15" transform="rotate(-180 31 31)" stroke="#fff" stroke-width="2"/>
</svg>
